<?xml version="1.0" encoding="UTF-8"?>
<svg id="Layer_1" data-name="Layer 1" xmlns="http://www.w3.org/2000/svg" viewBox="0 0 256 256">
  <path d="M19,145.41v-21.69h21.69v21.69H19Zm66.15,0v-21.69h21.69v21.69h-21.69Zm65.08,0v-21.69h21.69v21.69h-21.69Zm65.08,0v-21.69h21.69v21.69h-21.69Z"/>
  <path d="M105.77,74.43H20.07l-1.07,37.8,5.69,.98c1.06-11.14,3.98-19.4,8.77-24.8,5.04-5.64,11.98-8.59,20.9-8.84v79.07c0,6.91-.96,11.39-2.98,13.46-1.72,1.76-4.61,2.84-8.7,3.25-1.21,.1-3.28,.15-6.2,.15v6.05h52.89v-6.05c-2.92,0-4.99-.05-6.2-.15-4.08-.41-6.98-1.49-8.69-3.25-2.02-2.07-2.99-6.55-2.99-13.46V79.58c8.92,.25,15.87,3.2,20.91,8.84,4.79,5.39,7.71,13.66,8.77,24.8l5.69-.98-1.08-37.8Z"/>
</svg>